<?xml version="1.0" encoding="utf-8"?>
<!-- Generator: Adobe Illustrator 16.0.0, SVG Export Plug-In . SVG Version: 6.00 Build 0)  -->
<!DOCTYPE svg PUBLIC "-//W3C//DTD SVG 1.1//EN" "http://www.w3.org/Graphics/SVG/1.1/DTD/svg11.dtd">
<svg version="1.1" id="Capa_1" xmlns="http://www.w3.org/2000/svg" xmlns:xlink="http://www.w3.org/1999/xlink" x="0px" y="0px"
	 width="2588.48px" height="1181.4px" viewBox="0 0 2588.48 1181.4" enable-background="new 0 0 2588.48 1181.4"
	 xml:space="preserve">
<path fill="#3E3E7D" d="M1825.876,569.417c0,0-1.635-0.818,3.844-1.636c5.477-0.817,12.59,0.409,20.682-2.534
	c8.094-2.943,8.912-4.986,16.434-4.824c7.52,0.164,8.42,3.68,8.42,3.68s0.082-5.151,7.275-6.704
	c7.195-1.552,9.564,3.353,9.811,3.433c0.244,0.084,0.816-2.042,3.27-2.369c2.453-0.328,3.27,1.717,3.27,1.717
	s-1.799-4.742,2.617-5.723c4.414-0.98,4.986,0,4.986,0s-3.924-10.79,6.539-14.878c10.465-4.087,20.275,0.9,20.275,0.9
	s0.572-13.979,12.344-18.559c11.771-4.578,24.117,3.597,24.117,3.597s-2.617-2.785,0.408-4.988c3.023-2.205,4.414-1.715,4.414-1.715
	s-6.133-6.539-1.473-11.363c4.66-4.822,9.402-4.986,9.646-4.986c0.246,0-9.811-21.827,8.992-26.242
	c18.803-4.414,29.594,5.15,33.027,20.356s0,24.444,0,24.444s3.762,0.081,6.295,4.25c2.535,4.168-0.49,12.018-0.49,12.018
	s3.516-0.9,6.459,2.043c2.943,2.942,1.307,7.849,1.307,7.849s5.561-1.964,9.318,4.331c3.764,6.295,0.9,11.119,0.9,11.119
	s4.168,0.244,3.107,5.232c-1.063,4.986-7.113,9.401-14.389,5.313c0,0-3.436,3.024-9.076,3.024c-5.639,0-9.482-3.596-9.482-3.596
	s-9.318,3.84-14.633,3.188c-5.314-0.654-8.012-2.453-8.012-2.453s-2.125,2.044-8.992,2.044s-10.791-2.616-10.791-2.616
	s-0.816,2.535-5.805,3.434c-4.986,0.9-6.295-2.207-6.621-2.289c-0.328-0.082-10.873,3.434-18.803,2.453
	c-7.93-0.981-10.301-3.188-10.301-3.188s-8.828,3.778-20.846,3.36s-14.553-3.279-14.633-3.524c-0.084-0.245-1.555,2.207-7.113,1.227
	c-5.559-0.981-7.113-3.024-7.113-3.024s-1.717,3.434-6.049,3.188s-6.459-1.881-6.459-1.881s-9.646,5.724-18.066,4.048
	c-8.42-1.677-10.955-7.154-15.941-7.563C1833.56,568.6,1825.876,569.417,1825.876,569.417z"/>
<path fill="#3E3E7D" d="M1473.167,257.982c0,0-5.174-4.344,6.647-4.779c11.819-0.435,30.656,2.606,45.429-3.476
	c14.775-6.082,17.361-8.689,32.134,0c0,0-2.586-44.313,32.503-49.526c35.086-5.213,38.411,21.721,38.411,21.721
	s4.8-11.729,13.3-6.517c8.494,5.214,7.756,13.353,7.756,13.353s6.277-5.333,10.342,0c4.063,5.329,4.063,5.329,4.063,5.329
	s4.8-9.993,16.62-0.869c11.819,9.123,11.08,20.418,11.08,20.418s2.584-3.91,6.278,0.434c3.694,4.344,5.541,6.082,16.62,6.952
	c11.08,0.869,27.702,5.247,18.1,5.447c-9.604,0.2-43.584,3.241-43.584,3.241s-10.342,10.861-24.378,6.951
	c-14.033-3.909-22.528-5.647-22.528-5.647s-10.344,8.254-33.613,9.557c-23.27,1.304-37.673-9.557-37.673-9.557
	s-3.694,4.344-12.188,0.869c-8.495-3.476-18.467-9.992-18.467-9.992s-1.848,0.869-12.559,1.737s-12.559-6.083-19.206-6.083
	S1473.167,257.982,1473.167,257.982z"/>
<path fill="#F8FBFD" d="M672.587,862.78c0,0-3.284-1.536,7.716-3.072c11.003-1.538,25.286,0.768,41.54-4.764
	c16.254-5.532,17.896-9.369,32.999-9.064c15.104,0.308,16.912,6.915,16.912,6.915s0.166-9.681,14.612-12.6
	c14.449-2.916,19.208,6.3,19.7,6.452c0.494,0.156,1.641-3.838,6.57-4.452c4.924-0.616,6.566,3.225,6.566,3.225
	s-3.613-8.911,5.25-10.753c8.866-1.844,10.02,0,10.02,0s-7.883-20.277,13.134-27.958c21.013-7.681,40.716,1.692,40.716,1.692
	s1.149-26.272,24.791-34.875c23.641-8.603,48.432,6.76,48.432,6.76s-5.254-5.235,0.821-9.377c6.075-4.144,8.866-3.222,8.866-3.222
	s-12.315-12.287-2.957-21.353c9.357-9.063,18.882-9.37,19.374-9.37c0.491,0-19.704-41.017,18.058-49.313s59.436,9.677,66.332,38.252
	c6.896,28.574,0,45.935,0,45.935s7.55,0.152,12.641,7.987c5.088,7.834-0.986,22.583-0.986,22.583s7.062-1.692,12.971,3.84
	c5.911,5.528,2.628,14.748,2.628,14.748s11.163-3.69,18.713,8.14c7.558,11.828,1.808,20.893,1.808,20.893s8.371,0.462,6.241,9.834
	c-2.137,9.37-14.286,17.667-28.898,9.984c0,0-6.896,5.685-18.225,5.685s-19.045-6.759-19.045-6.759s-18.717,7.219-29.388,5.99
	c-10.674-1.228-16.091-4.611-16.091-4.611s-4.267,3.844-18.062,3.844c-13.788,0-21.667-4.916-21.667-4.916
	s-1.642,4.764-11.661,6.452c-10.013,1.69-12.642-4.148-13.296-4.301c-0.658-0.157-21.837,6.451-37.762,4.608
	c-15.929-1.844-20.688-5.992-20.688-5.992s-17.732,7.1-41.865,6.316c-24.137-0.784-29.225-6.164-29.387-6.624
	c-0.167-0.46-3.121,4.148-14.287,2.305c-11.163-1.845-14.282-5.685-14.282-5.685s-3.45,6.454-12.15,5.992
	c-8.703-0.46-12.971-3.532-12.971-3.532s-19.374,10.754-36.282,7.604c-16.912-3.148-22.003-13.443-32.016-14.212
	C688.017,861.245,672.587,862.78,672.587,862.78z"/>
<path fill="#3E3E7D" d="M1228.308,490.502c0,0-1.635-0.818,3.843-1.635c5.478-0.818,12.59,0.408,20.683-2.535
	c8.094-2.943,8.912-4.986,16.433-4.823s8.42,3.68,8.42,3.68s0.083-5.151,7.276-6.704c7.194-1.553,9.564,3.352,9.811,3.433
	c0.244,0.083,0.816-2.042,3.27-2.37c2.453-0.327,3.27,1.717,3.27,1.717s-1.799-4.742,2.616-5.723s4.987,0,4.987,0
	s-3.924-10.789,6.539-14.877c10.465-4.088,20.275,0.9,20.275,0.9s0.572-13.98,12.343-18.559c11.772-4.578,24.117,3.597,24.117,3.597
	s-2.616-2.786,0.409-4.989c3.023-2.205,4.414-1.715,4.414-1.715s-6.133-6.539-1.473-11.362c4.66-4.823,9.401-4.987,9.646-4.987
	c0.246,0-9.811-21.827,8.992-26.242s29.594,5.15,33.027,20.356c3.434,15.206,0,24.444,0,24.444s3.761,0.081,6.295,4.25
	c2.535,4.169-0.49,12.018-0.49,12.018s3.516-0.899,6.458,2.043c2.943,2.943,1.308,7.85,1.308,7.85s5.56-1.964,9.318,4.33
	c3.763,6.295,0.9,11.119,0.9,11.119s4.168,0.245,3.107,5.232c-1.063,4.986-7.113,9.402-14.389,5.314c0,0-3.436,3.023-9.076,3.023
	c-5.64,0-9.482-3.596-9.482-3.596s-9.319,3.841-14.633,3.188c-5.314-0.653-8.012-2.453-8.012-2.453s-2.125,2.045-8.992,2.045
	s-10.791-2.617-10.791-2.617s-0.817,2.535-5.805,3.434c-4.987,0.9-6.295-2.207-6.621-2.288c-0.328-0.083-10.873,3.433-18.803,2.452
	s-10.301-3.188-10.301-3.188s-8.828,3.777-20.846,3.359c-12.019-0.417-14.553-3.279-14.634-3.523
	c-0.083-0.246-1.554,2.207-7.113,1.227c-5.559-0.982-7.112-3.025-7.112-3.025s-1.717,3.434-6.05,3.189
	c-4.332-0.246-6.458-1.881-6.458-1.881s-9.646,5.723-18.066,4.047c-8.421-1.676-10.955-7.154-15.941-7.563
	C1235.99,489.686,1228.308,490.502,1228.308,490.502z"/>
<path fill="#3E3E7D" d="M2.326,486.27c0,0-2.984-4.76,3.833-5.238c6.816-0.475,17.68,2.858,26.199-3.808
	c8.521-6.666,10.013-9.523,18.532,0c0,0-1.492-48.567,18.745-54.28c20.234-5.714,22.152,23.807,22.152,23.807
	s2.768-12.856,7.67-7.143c4.899,5.713,4.473,14.635,4.473,14.635s3.62-5.846,5.964,0c2.344,5.839,2.344,5.839,2.344,5.839
	s2.768-10.951,9.585-0.953c6.816,9.999,6.39,22.38,6.39,22.38s1.49-4.286,3.621,0.475s3.196,6.666,9.585,7.618
	c6.39,0.952,15.976,5.752,10.438,5.97c-5.539,0.219-25.136,3.552-25.136,3.552s-5.964,11.903-14.059,7.618
	c-8.093-4.283-12.992-6.188-12.992-6.188s-5.965,9.046-19.385,10.474c-13.419,1.431-21.726-10.474-21.726-10.474
	s-2.131,4.761-7.029,0.952c-4.899-3.81-10.65-10.951-10.65-10.951s-1.066,0.953-7.243,1.903c-6.177,0.952-7.243-6.665-11.077-6.665
	S2.326,486.27,2.326,486.27z"/>
<linearGradient id="SVGID_1_" gradientUnits="userSpaceOnUse" x1="1238.4478" y1="475.7422" x2="1238.4478" y2="695.6642">
	<stop  offset="5.580400e-004" style="stop-color:#FFFFFF"/>
	<stop  offset="1" style="stop-color:#E2ACB8"/>
</linearGradient>
<path fill="url(#SVGID_1_)" d="M1104.94,549.154c0,0-4.499-5.9,8.993-6.463c13.489-0.563,18.265-2.533,25.854-7.027
	s13.489-11.24,24.731-9.555c11.242,1.687,12.084,3.374,12.646,2.529c0.563-0.843-4.215-12.928,8.148-16.861
	c12.367-3.934,15.738-2.249,15.738-2.249s-1.686-7.306,4.496-9.835c6.184-2.531,8.15,0,8.15,0s-4.215-10.119,5.619-12.928
	c0,0-9.836-41.313,27.541-51.429c37.379-10.118,63.232,36.814,63.232,36.814s5.061-6.179,15.459,2.25
	c10.398,8.43,8.992,18.829,8.992,18.829s18.551-9.275,31.476,3.933c12.929,13.209,6.183,45.25-12.927,50.025
	c-19.11,4.777-31.194,0-31.194,0s-2.808,5.899-12.364,8.43c-9.556,2.529-14.895-4.496-14.895-4.496s-3.092,5.058-16.301,7.588
	c-13.207,2.529-20.234-7.869-20.234-7.869s-12.084,10.117-39.343,11.242c-27.261,1.125-46.091-18.266-47.495-19.109
	s-4.497,6.181-20.797,7.025c-16.3,0.842-20.514-6.465-28.384-4.777C1114.216,546.906,1104.94,549.154,1104.94,549.154z"/>
<path fill="#3E3E7D" d="M6.055,485.179c0,0-5.174-4.344,6.647-4.779c11.819-0.434,30.656,2.607,45.429-3.475
	c14.775-6.082,17.361-8.689,32.134,0c0,0-2.586-44.314,32.503-49.526c35.086-5.214,38.411,21.722,38.411,21.722
	s4.8-11.73,13.3-6.518c8.494,5.214,7.756,13.354,7.756,13.354s6.277-5.333,10.342,0c4.063,5.328,4.063,5.328,4.063,5.328
	s4.8-9.992,16.62-0.868c11.819,9.123,11.08,20.419,11.08,20.419s2.584-3.91,6.278,0.434s5.541,6.082,16.62,6.951
	c11.08,0.869,27.702,5.249,18.1,5.448c-9.604,0.199-43.584,3.24-43.584,3.24s-10.342,10.861-24.378,6.951
	c-14.033-3.908-22.528-5.646-22.528-5.646s-10.344,8.254-33.613,9.557c-23.27,1.305-37.673-9.557-37.673-9.557
	s-3.694,4.344-12.188,0.869c-8.495-3.477-18.467-9.993-18.467-9.993s-1.848,0.869-12.559,1.737
	c-10.711,0.869-12.559-6.083-19.206-6.083S6.055,485.179,6.055,485.179z"/>
<path fill="#F8FBFD" d="M258.361,529.089c0,0,1.736-0.371-2.602-0.992c-4.338-0.617-18.344,2.604-31.854-2.602
	c-13.508-5.205-16.359-7.313-21.316-3.842c0,0-0.125-1.795-2.23-1.703c-2.109,0.092-2.355,1.332-2.355,1.332
	s0.123-1.984-3.471-2.852s-4.215,0-4.215,0s3.471-10.906-7.561-15.121c-11.029-4.213-18.59,2.355-18.59,2.355
	s1.982-4.338-1.859-5.701c-3.844-1.365-6.445-1.115-6.445-1.115s-0.619-12.642-11.402-12.642s-14.998,10.783-14.998,10.783
	s-3.943-3.223-8.045,2.727c-4.1,5.949,4.699,17.475,4.699,17.475s-7.932-2.479-11.898,2.479c-3.965,4.959-0.496,11.775,5.949,12.271
	s11.65-0.744,14.129,0c2.48,0.744,7.561,0.119,7.561,0.119s3.842,3.971,9.42,2.855s9.791-3.594,9.791-3.594
	s5.453,1.859,12.643,1.363c7.188-0.496,10.783-2.852,10.783-2.852s0.371,1.115,3.098,1.488c2.727,0.371,4.463-1.24,4.463-1.24
	s-1.611,2.479,4.213,2.852c5.826,0.371,8.676-2.232,15.369-2.977c6.693-0.742,17.6,0.25,28.383,0.373
	S258.361,529.089,258.361,529.089z"/>
<linearGradient id="SVGID_2_" gradientUnits="userSpaceOnUse" x1="2079.2227" y1="546.7124" x2="2079.2227" y2="640.1866">
	<stop  offset="5.580400e-004" style="stop-color:#FFFFFF"/>
	<stop  offset="1" style="stop-color:#E2ACB8"/>
</linearGradient>
<path fill="url(#SVGID_2_)" d="M1991.57,568.186c0,0-3.474-2.918,4.465-3.21c7.938-0.292,20.588,1.751,30.511-2.334
	c9.922-4.085,11.658-5.835,21.58,0c0,0-1.736-29.761,21.828-33.261c23.564-3.502,25.797,14.588,25.797,14.588
	s3.225-7.878,8.931-4.377c5.705,3.502,5.209,8.967,5.209,8.967s4.217-3.58,6.945,0s2.729,3.58,2.729,3.58s3.225-6.711,11.162-0.584
	s7.441,13.713,7.441,13.713s1.737-2.626,4.218,0.291c2.48,2.918,3.721,4.085,11.162,4.669c7.441,0.583,18.604,3.524,12.154,3.658
	s-29.271,2.177-29.271,2.177s-6.945,7.294-16.371,4.668c-9.426-2.625-15.131-3.793-15.131-3.793s-6.946,5.544-22.573,6.419
	c-15.627,0.876-25.301-6.419-25.301-6.419s-2.48,2.918-8.186,0.584s-12.402-6.711-12.402-6.711s-1.24,0.584-8.434,1.168
	c-7.194,0.583-8.435-4.086-12.899-4.086S1991.57,568.186,1991.57,568.186z"/>
<path fill="#3E3E7D" d="M2149.149,822.768c0,0-5.174-4.344,6.647-4.779c11.819-0.434,30.656,2.607,45.429-3.475
	c14.775-6.082,17.361-8.689,32.134,0c0,0-2.586-44.314,32.503-49.527c35.086-5.213,38.411,21.723,38.411,21.723
	s4.8-11.73,13.3-6.518c8.494,5.213,7.756,13.354,7.756,13.354s6.277-5.334,10.342,0c4.063,5.328,4.063,5.328,4.063,5.328
	s4.8-9.992,16.62-0.869c11.819,9.123,11.08,20.42,11.08,20.42s2.584-3.91,6.278,0.434s5.541,6.082,16.62,6.951
	c11.08,0.869,27.702,5.248,18.1,5.447c-9.604,0.199-43.584,3.24-43.584,3.24s-10.342,10.861-24.378,6.951
	c-14.033-3.908-22.528-5.646-22.528-5.646s-10.344,8.254-33.613,9.557c-23.27,1.305-37.673-9.557-37.673-9.557
	s-3.694,4.344-12.188,0.869c-8.495-3.477-18.467-9.992-18.467-9.992s-1.848,0.869-12.559,1.736
	c-10.711,0.869-12.559-6.082-19.206-6.082S2149.149,822.768,2149.149,822.768z"/>
<path fill="#3E3E7D" d="M1554.606,270.437c0,0-4.574-5.94,5.878-6.536c10.45-0.593,27.105,3.565,40.167-4.751
	c13.064-8.317,15.351-11.882,28.412,0c0,0-2.286-60.596,28.739-67.723c31.022-7.129,33.962,29.703,33.962,29.703
	s4.244-16.041,11.76-8.913c7.511,7.13,6.857,18.26,6.857,18.26s5.551-7.292,9.145,0c3.593,7.286,3.593,7.286,3.593,7.286
	s4.243-13.664,14.695-1.188c10.45,12.475,9.797,27.921,9.797,27.921s2.284-5.347,5.551,0.593c3.267,5.94,4.899,8.317,14.695,9.505
	c9.797,1.188,24.494,7.176,16.003,7.449c-8.491,0.274-38.536,4.432-38.536,4.432s-9.144,14.851-21.555,9.504
	c-12.407-5.344-19.919-7.721-19.919-7.721s-9.146,11.287-29.72,13.068c-20.575,1.784-33.31-13.068-33.31-13.068
	s-3.267,5.939-10.777,1.188c-7.512-4.754-16.328-13.664-16.328-13.664s-1.634,1.188-11.104,2.375
	c-9.471,1.187-11.104-8.318-16.982-8.318C1579.753,269.841,1554.606,270.437,1554.606,270.437z"/>
</svg>
