<?xml version="1.0" encoding="utf-8"?>
<!-- Generator: Adobe Illustrator 16.0.0, SVG Export Plug-In . SVG Version: 6.00 Build 0)  -->
<!DOCTYPE svg PUBLIC "-//W3C//DTD SVG 1.1//EN" "http://www.w3.org/Graphics/SVG/1.1/DTD/svg11.dtd">
<svg version="1.1" id="Capa_1" xmlns="http://www.w3.org/2000/svg" xmlns:xlink="http://www.w3.org/1999/xlink" x="0px" y="0px"
	 width="2588.48px" height="1181.4px" viewBox="0 0 2588.48 1181.4" enable-background="new 0 0 2588.48 1181.4"
	 xml:space="preserve">
<path fill="#3E3E7D" d="M769.003,311.489c0,0,2.746-4.192-0.864-9.662c-3.605-5.471-8.939-3.764-8.939-3.764s1.57-4.264-1.254-6.82
	c-2.823-2.558-6.196-1.775-6.196-1.775s2.901-6.821,0.47-10.443c-2.43-3.623-6.039-3.693-6.039-3.693s3.294-8.028,0-21.242
	c-3.295-13.214-13.647-21.525-31.687-17.689c-4.414,0.938-7.163,2.787-8.812,5.038c-5.183-9.822-15.026-15.042-29.858-11.56
	c-18.803,4.415-8.746,26.242-8.992,26.242c-0.245,0-4.986,0.164-9.646,4.987c-4.66,4.824,1.473,11.362,1.473,11.362
	s-1.391-0.49-4.414,1.715c-3.025,2.204-0.409,4.989-0.409,4.989s-12.345-8.175-24.117-3.597
	c-11.771,4.579-12.343,18.559-12.343,18.559s-9.811-4.988-20.275-0.9c-10.463,4.088-6.539,14.877-6.539,14.877s-0.572-0.98-4.987,0
	c-2.838,0.63-3.106,2.811-2.937,4.291c-0.208,0.082-0.434,0.168-0.654,0.253c-0.515-0.38-1.249-0.678-2.295-0.538
	c-2.235,0.298-2.905,2.071-3.191,2.324c-0.033,0.008-0.066,0.017-0.1,0.025c-0.32-0.252-2.729-4.936-9.789-3.413
	c-4.347,0.938-6.09,3.187-6.794,4.823c-0.258,0.026-0.515,0.053-0.766,0.086c-0.351,0.047-0.666,0.095-0.958,0.142
	c-1.129-0.938-3.242-1.941-7.178-2.027c-7.521-0.163-8.339,1.88-16.433,4.824c-8.093,2.943-15.205,1.716-20.683,2.534
	c-5.478,0.817-3.843,1.635-3.843,1.635s7.683-0.817,12.67-0.408c4.986,0.408,7.521,5.886,15.941,7.563
	c8.42,1.676,18.066-4.047,18.066-4.047s2.126,1.636,6.458,1.881c4.333,0.245,6.05-3.189,6.05-3.189s1.554,2.043,7.112,3.025
	c5.56,0.98,7.03-1.472,7.113-1.227c0.081,0.245,2.615,3.107,14.634,3.524c12.018,0.418,20.846-3.36,20.846-3.36
	s2.371,2.207,10.301,3.188c7.93,0.98,18.475-2.536,18.803-2.453c0.326,0.081,1.634,3.188,6.621,2.288
	c4.987-0.898,5.805-3.433,5.805-3.433s3.924,2.616,10.791,2.616s8.992-2.044,8.992-2.044s2.697,1.8,8.012,2.453
	c5.313,0.653,14.633-3.188,14.633-3.188s3.843,3.596,9.482,3.596c5.64,0,9.076-3.024,9.076-3.024
	c7.221,4.057,13.229-0.262,14.357-5.202c2.649-0.728,4.659-1.474,4.659-1.474s3.688,3.125,9.098,3.125s8.707-2.629,8.707-2.629
	c6.98,3.553,12.784-0.284,13.804-4.617C773.001,311.701,769.003,311.489,769.003,311.489z M559.009,317.111
	c0.136-0.008,0.274-0.016,0.415-0.024c-0.084,0.41-0.093,0.671-0.093,0.671S559.257,317.494,559.009,317.111z"/>
<path fill="#F8FBFD" d="M1843.252,590.859c0,0,1.734-0.372-2.602-0.992c-4.34-0.617-18.344,2.604-31.854-2.602
	s-16.361-7.313-21.318-3.842c0,0-0.123-1.795-2.23-1.704c-2.107,0.093-2.355,1.333-2.355,1.333s0.125-1.984-3.469-2.852
	c-3.596-0.868-4.215,0-4.215,0s3.471-10.907-7.561-15.121s-18.592,2.355-18.592,2.355s1.982-4.339-1.859-5.701
	c-3.842-1.364-6.445-1.116-6.445-1.116s-0.619-12.643-11.4-12.643c-10.783,0-14.998,10.783-14.998,10.783s-3.945-3.223-8.045,2.727
	c-4.102,5.95,4.699,17.476,4.699,17.476s-7.934-2.479-11.898,2.479c-3.967,4.959-0.496,11.775,5.949,12.271
	c6.445,0.495,11.65-0.744,14.129,0c2.479,0.743,7.561,0.119,7.561,0.119s3.842,3.971,9.42,2.854
	c5.576-1.115,9.791-3.594,9.791-3.594s5.451,1.859,12.641,1.363c7.189-0.495,10.783-2.851,10.783-2.851s0.371,1.115,3.1,1.487
	c2.727,0.372,4.461-1.239,4.461-1.239s-1.611,2.479,4.215,2.851c5.824,0.372,8.676-2.231,15.367-2.976
	c6.693-0.742,17.602,0.249,28.385,0.373C1835.691,592.223,1843.252,590.859,1843.252,590.859z"/>
<linearGradient id="SVGID_1_" gradientUnits="userSpaceOnUse" x1="748.9707" y1="299.5415" x2="748.9707" y2="442.5882">
	<stop  offset="5.580400e-004" style="stop-color:#FFFFFF"/>
	<stop  offset="1" style="stop-color:#E2ACB8"/>
</linearGradient>
<path fill="url(#SVGID_1_)" d="M856.298,335.528c-8.15-0.894-9.508-2.68-12.226-7.145c-2.717-4.464-4.62-0.445-4.62-0.445
	s0.544-11.609-8.15-20.985c-8.694-9.376-12.226,0.894-12.226,0.894s0,0-2.988-5.479c-2.99-5.479-7.607,0-7.607,0
	s0.542-8.363-5.706-13.722c-6.25-5.357-9.782,6.698-9.782,6.698s-2.444-27.684-28.256-22.324
	c-15.942,3.308-21.311,21.948-23.086,35.718c-0.465-0.397-0.976-0.784-1.566-1.147c-5.706-3.501-8.931,4.377-8.931,4.377
	s-2.232-18.09-25.797-14.588c-18.854,2.8-21.509,22.399-21.818,30.128c-2.013,0.124-3.333,0.469-4.168,0.925
	c-6.506-2.992-9.076-1.228-17.422,2.208c-9.923,4.085-22.573,2.042-30.511,2.334c-7.938,0.292-4.465,3.21-4.465,3.21
	s19.1-0.293,23.564-0.293s5.705,4.669,12.899,4.086c7.193-0.584,8.434-1.168,8.434-1.168s6.697,4.377,12.402,6.711
	s8.186-0.584,8.186-0.584s9.674,7.295,25.301,6.419c12.74-0.713,19.707-4.528,21.848-5.914c0.685,0.443,1.367,0.867,2.037,1.25
	c3.823,2.186,6.319,1.361,7.685,0.392c1.222,0.315,2.558,0.668,3.993,1.058c4.176,3.195,12.976,8.421,25,7.479
	c17.117-1.339,24.725-9.823,24.725-9.823s6.25,1.788,16.573,5.805c10.325,4.019,17.932-7.144,17.932-7.144
	s24.997-3.126,32.061-3.332C876.675,340.921,864.45,336.42,856.298,335.528z"/>
</svg>
