<?xml version="1.0" encoding="utf-8"?>
<!-- Generator: Adobe Illustrator 16.0.0, SVG Export Plug-In . SVG Version: 6.00 Build 0)  -->
<!DOCTYPE svg PUBLIC "-//W3C//DTD SVG 1.1//EN" "http://www.w3.org/Graphics/SVG/1.1/DTD/svg11.dtd">
<svg version="1.1" id="Capa_1" xmlns="http://www.w3.org/2000/svg" xmlns:xlink="http://www.w3.org/1999/xlink" x="0px" y="0px"
	 width="2588.48px" height="1181.4px" viewBox="0 0 2588.48 1181.4" enable-background="new 0 0 2588.48 1181.4"
	 xml:space="preserve">
<path fill="#141921" d="M2591.407,875.034v-2.333c0-16-7.682-31.418-34.309-38.751c-29.367-8.088-46.593,19.5-46.593,19.5
	s-5.512-17.75-29.811-15c-17.513,1.982-29.105,19.084-31.062,24.5c-2.273,0.195-2.273,0.195-10.271-4.5
	c-8.49-4.345-23.121-12.384-42.585-16.083c-14.518-2.76-17.64-4.423-29.391-6.333c-12.282-1.996-34.363,5.483-42.756,12.123
	c-5.487-5.982-20.211-23.681-39.831-16.358c-20.445,7.63-19.232,18.872-19.232,18.872s-25.81-28.347-66.074,1.623
	c-40.267,29.965-23.171,62.335-23.171,62.335s-17.283-5.973-35.351,6.016c-18.073,11.995-15.488,31.708-16.96,32.661
	c-1.475,0.94-23.777-10.627-65.087,7.258c-5.763,2.495-10.829,4.86-15.316,7.094c-8.598-1.675-17.613-3.77-27.063-6.427
	c-66.339-18.653-95.326-31.092-113.725-11.4c0,0,1.116-5.462-15.607-9.981c-16.726-4.523-27.317,0-27.317,0s28.991-39.241,0-59.45
	c-28.989-20.206-75.256,3.111-75.256,3.111s31.772-74.619-46.27-100.007c-78.043-25.389-120.41,26.426-120.41,26.426
	s-7.805-10.359-26.76-3.105c-18.948,7.253-18.391,43-17.279,45.594c1.113,2.594-19.509-6.217-47.94,11.398
	c-28.43,17.617-20.623,51.3-20.623,51.3s-6.136-8.811-22.855-3.626c-16.727,5.178-17.841,19.167-17.841,19.167
	s-2.782-13.474-25.643-9.847c-22.855,3.626-30.656,17.619-32.328,18.136c-1.676,0.521-32.336-47.669-81.393-47.149
	c-49.058,0.518-83.062,29.535-83.062,29.535s18.395-72.027-54.632-85.499c-73.026-13.471-124.873,52.854-126.545,53.888
	c-1.672,1.037-1.668-12.172-23.41-10.23c-21.742,1.941-21.186,10.23-21.186,10.23s-17.279-34.197-64.107-16.061
	c-46.827,18.137-39.021,53.89-39.021,53.89s-15.054-10.368-35.678-3.634c-20.626,6.738-23.416,26.425-25.086,26.947
	c-1.674,0.516-20.068-16.583-64.665-10.367c-44.599,6.219-54.076,15.547-54.076,15.547s-24.529-56.993-83.063-54.923
	c-58.533,2.07-70.799,34.714-70.799,34.714s-6.13-9.322-22.856-1.033c-12.055,5.974-15.419,21.908-16.359,30.341
	c-2.994-1.408-6.196-2.859-9.662-4.36c-41.311-17.885-63.614-6.315-65.087-7.258c-1.473-0.953,1.112-20.666-16.96-32.661
	c-18.068-11.987-35.353-6.016-35.353-6.016s17.096-32.37-23.169-62.335c-40.267-29.969-66.075-1.623-66.075-1.623
	s2.757-7.84-17.674-15.51c-19.12-7.178-36.562,12.841-39.817,14.259c-8.713-7.101-19.187-13.897-31.521-19.156
	c-27.793-11.848-54.214,29.269-70.624,38.723c-1.69,0.975,6.29-1.825,4.634-1.5c-10.118,1.993-30.186-19.8-44.213-20.5
	c-23.114-1.152-41.082,26-41.082,26s-22.044-18-41.082-21c-17.299-2.726-45.33,20.81-45.33,20.81v137.344V1181.4h2593.667V978.762
	V875.034z"/>
</svg>
