<?xml version="1.0" encoding="utf-8"?>
<!-- Generator: Adobe Illustrator 16.0.0, SVG Export Plug-In . SVG Version: 6.00 Build 0)  -->
<!DOCTYPE svg PUBLIC "-//W3C//DTD SVG 1.1//EN" "http://www.w3.org/Graphics/SVG/1.1/DTD/svg11.dtd">
<svg version="1.1" id="Capa_1" xmlns="http://www.w3.org/2000/svg" xmlns:xlink="http://www.w3.org/1999/xlink" x="0px" y="0px"
	 width="2588.48px" height="1181.4px" viewBox="0 0 2588.48 1181.4" enable-background="new 0 0 2588.48 1181.4"
	 xml:space="preserve">
<g>
	<path fill-rule="evenodd" clip-rule="evenodd" fill="#6699FF" d="M580.427,327.387c40.93,0,74.248-33.37,74.248-74.247
		c0-40.928-33.318-74.249-74.248-74.249c-40.875,0-74.247,33.321-74.247,74.249C506.18,294.017,539.551,327.387,580.427,327.387
		L580.427,327.387z"/>
	<path fill-rule="evenodd" clip-rule="evenodd" fill="#66BDFF" d="M631.448,199.178c2.789,2.636,5.426,5.527,7.759,8.571
		c-5.629,0.1-11.309,0.151-17.091,0.151c-36.262,0-69.684-1.826-96.461-4.868c1.013-1.168,2.079-2.231,3.195-3.297
		c14.504,0.659,29.922,0.963,45.846,0.963C594.68,200.699,613.8,200.193,631.448,199.178L631.448,199.178z M648.387,223.115
		c0.457,1.066,0.914,2.132,1.319,3.195c-19.172,20.997-61.315,43.769-109.192,57.26c-8.519,2.383-16.837,4.361-24.801,5.984
		c-3.295-5.935-5.832-12.324-7.455-19.12c16.281-1.117,35.197-4.464,55.484-10.194C596.505,251.06,626.528,237.519,648.387,223.115
		L648.387,223.115z M652.343,271.752c-0.203,0.76-0.405,1.572-0.659,2.333c-15.367,7.049-32.458,13.389-50.362,18.409
		c-29.566,8.368-56.192,11.666-76.022,10.347c-2.94-3.297-5.629-6.898-8.012-10.651c19.474,6.595,54.722,4.718,95.701-6.846
		C626.68,281.49,639.967,276.875,652.343,271.752L652.343,271.752z M627.847,310.296c-6.439,5.324-13.795,9.585-21.756,12.527
		c-19.679-0.102-38.443-0.711-55.686-1.776c-8.369-3.701-15.875-8.875-22.265-15.215c26.22,2.789,58.375,4.464,93.063,4.464
		C623.435,310.296,625.615,310.296,627.847,310.296L627.847,310.296z"/>
	<path fill-rule="evenodd" clip-rule="evenodd" fill="#426EC7" d="M633.934,304.616c-13.491,14.049-32.459,22.771-53.507,22.771
		c-40.978,0-74.247-33.27-74.247-74.247c0-41.03,33.27-74.249,74.247-74.249l-24.342,16.279l4.005,6.948l-5.579,14.1l4.668,18.359
		l9.178,5.324l1.116,10.296l-8.267,10.752l-15.873-2.688l-0.659,0.659l-10.094,18.106l7.405,13.236l0.659,0.203l19.932,0.913
		l13.187-8.317l5.121,6.086l6.29,1.115l-1.573,6.441c0.608,0,0.863,0,0.863,0l15.215,1.369c2.94-1.472,0.911-0.457,1.114-0.659
		l9.637-10.752l-13.44-8.267l2.941-6.947l13.389-4.464l6.037,10.499l-3.804,9.382l4.513,6.035l-12.527,10.549l-4.919-1.572
		l-2.23,3.551l8.723,5.376l14.049-7.607L633.934,304.616z M627.796,264.45l-6.593-1.218l-0.102-4.362l5.478-1.572l0.355-0.202
		l3.549,2.789l-0.456,1.674L627.796,264.45z M549.745,287.169l-1.218-1.115l1.318-2.688l1.368,1.015L549.745,287.169z
		 M567.039,269.672l-2.892-1.572l-1.571,1.319v2.484l2.891,1.116l2.89-3.601L567.039,269.672z M593.867,198.315l-1.774-3.145
		l1.318-1.521l2.485,0.406v3.804L593.867,198.315z M577.993,219.82l-2.89-3.602l1.977-1.115l2.942,0.913l0.404,2.891L577.993,219.82
		z M594.982,229.202l-13.845,0.457l-2.941,7.557l5.63,4.918l7.353-4.665l-1.115-4.261l4.008-0.913L594.982,229.202z
		 M545.333,201.917l-6.949,1.775l-2.434,8.723l9.584,4.463l4.514-7.151L545.333,201.917z M531.487,247.054l-0.71,2.282l2.282,1.774
		l1.115-3.145L531.487,247.054z M533.922,256.944l-7.607-2.029l-3.552,6.491l6.239,4.463l9.18-7.607L533.922,256.944z
		 M549.137,238.381l4.462-0.456l-0.202,2.89h-4.26V238.381z M538.384,225.144l-4.92-0.203v3.348l5.377,1.572L538.384,225.144z"/>
	<path fill-rule="evenodd" clip-rule="evenodd" fill="#2F83C4" d="M627.847,310.296c-6.439,5.324-13.795,9.585-21.756,12.527
		c-19.679-0.102-38.443-0.711-55.686-1.776c-8.369-3.701-15.875-8.875-22.265-15.215c23.431,2.536,51.527,4.108,82.007,4.413
		l0.964,0.559l1.013-0.559c2.993,0.051,6.037,0.051,9.079,0.051C623.435,310.296,625.615,310.296,627.847,310.296L627.847,310.296z
		 M525.299,302.841c-2.94-3.297-5.629-6.898-8.012-10.651c15.164,5.123,39.964,5.123,69.531-0.608l-1.166,4.972
		C562.373,301.877,541.579,303.906,525.299,302.841L525.299,302.841z M515.713,289.554c-3.295-5.935-5.832-12.324-7.455-19.12
		c9.941-0.66,20.895-2.181,32.561-4.565l-6.239,11.158l3.955,7.101C530.727,286.257,523.068,288.083,515.713,289.554
		L515.713,289.554z M525.655,203.033c1.013-1.168,2.079-2.231,3.195-3.297c9.787,0.406,19.93,0.71,30.379,0.861l0.86,1.521
		l-1.47,3.804c-3.905-0.254-7.658-0.558-11.361-0.812l-1.926-3.194l-6.949,1.775l-0.151,0.608
		C533.871,203.894,529.711,203.488,525.655,203.033L525.655,203.033z M609.286,290.163l3.144-3.5l-1.268-0.812
		c0.608-0.151,1.217-0.305,1.825-0.507c1.979-0.558,3.957-1.115,5.884-1.725l-1.318,3.246l0.404,0.558
		C615.067,288.335,612.175,289.3,609.286,290.163L609.286,290.163z M567.039,269.672l-2.892-1.572l-1.571,1.319v2.484l2.891,1.116
		l2.89-3.601L567.039,269.672z"/>
	<path opacity="0.3" fill-rule="evenodd" clip-rule="evenodd" fill="#FFFFFF" d="M580.427,178.892
		c41.03,0,74.248,33.218,74.248,74.249c0,33.219-21.807,61.365-51.933,70.799c27.184-11.005,46.354-37.682,46.354-68.822
		c0-40.978-33.219-74.247-74.248-74.247c-7.76,0-15.266,1.217-22.315,3.398C561.156,180.819,570.589,178.892,580.427,178.892
		L580.427,178.892z"/>
</g>
<g>
	<path fill-rule="evenodd" clip-rule="evenodd" fill="#FF6666" d="M1736.555,198.166c38.771,0.862,71.07-30.033,71.933-68.803
		c0.863-38.734-30.032-71.035-68.804-71.897c-38.733-0.86-71.034,30.033-71.896,68.768
		C1666.924,165.003,1697.821,197.304,1736.555,198.166L1736.555,198.166z"/>
	<path fill-rule="evenodd" clip-rule="evenodd" fill="#C43F57" d="M1739.684,57.465c38.877,0.865,69.668,33.057,68.804,71.897
		c-0.863,38.876-33.057,69.668-71.933,68.803c-7.025-2.083-21.906-3.569-19.379-10.165c1.297-3.261,10.574,1.566,19.864,2.508
		c12.366,1.221,25.476-1.044,26.999-5.001c2.267-5.936-12.729-2.278-29.889-3.571c-20.341-1.572-43.65-8.078-42.846-17.511
		c0.615-7.198,20.983,2.531,41.132,4.801c20.605,2.313,41.024-2.87,42.306-14.813c1.321-12.153-18.623-9.517-41.6-10.552
		c-21.473-1.004-48.569-8.923-49.228-21.891c-0.668-14.018,21.143-7.687,42.007-7.643c21.004,0.047,41.027-6.193,37.665-20.238
		c-1.86-7.672-14.426-3.122-29.908-2.764c-15.655,0.386-34.197-3.387-35.28-9.783C1696.357,69.421,1724.85,58.676,1739.684,57.465
		L1739.684,57.465z"/>
	<path opacity="0.3" fill-rule="evenodd" clip-rule="evenodd" fill="#FFFFFF" d="M1739.684,57.465
		c2.311,0.051,4.583,0.207,6.818,0.466c-0.526-0.011-1.05-0.058-1.575-0.069c-38.84-0.864-71.068,29.961-71.933,68.802
		c-0.813,36.565,26.44,67.245,62.021,71.468c-38.12-1.688-68.08-33.547-67.228-71.898
		C1668.65,87.393,1700.844,56.601,1739.684,57.465L1739.684,57.465z"/>
</g>
<g>
	<circle fill-rule="evenodd" clip-rule="evenodd" fill="#321791" cx="1857.089" cy="1057.22" r="259.949"/>
	<path fill-rule="evenodd" clip-rule="evenodd" fill="#9966FF" d="M2105.603,980.733
		c-32.619-107.205-131.163-185.953-249.008-185.953c-92.112,0-173.082,47.664-219.613,119.675
		c-27.02,41.709-42.459,91.568-41.823,144.984c1.402,117.838,80.596,216.512,188.182,247.819L1779.446,980L2105.603,980.733z"/>
	<path fill="#321791" d="M1786.776,818.688c-2.872,0.899-5.715,1.864-8.543,2.86c2.825-0.982,5.676-1.91,8.543-2.797V818.688z"/>
	<path fill="#321791" d="M2106.258,982.901c-5.564-20.398-14.679-37.671-23.919-54.017c-46.444-72.59-127.75-120.75-220.324-120.75
		c-26.888,0-52.825,4.07-77.238,11.616c-2.867,0.887-5.718,1.814-8.543,2.797c-15.152,5.332-29.673,12.007-43.381,19.909
		c-49.657,32.367-87.617,81.129-106.224,138.543c-8.445,26.058-12.903,53.896-12.659,82.795
		c0.958,113.256,73.872,209.103,174.939,244.475l-2.769-325.176L2106.258,982.901z"/>
	<g>
		<path fill-rule="evenodd" clip-rule="evenodd" fill="#220B78" d="M1796.22,843.92c2.135,0,3.885-1.785,3.885-3.955
			c0-2.205-1.75-3.955-3.885-3.955c-2.17,0-3.92,1.75-3.92,3.955C1792.3,842.135,1794.05,843.92,1796.22,843.92z"/>
		<path fill-rule="evenodd" clip-rule="evenodd" fill="#220B78" d="M1850.084,855.995c3.535,0,6.37-2.905,6.37-6.44
			c0-3.569-2.835-6.439-6.37-6.439c-3.5,0-6.335,2.87-6.335,6.439C1843.749,853.09,1846.584,855.995,1850.084,855.995z"/>
		<path fill-rule="evenodd" clip-rule="evenodd" fill="#220B78" d="M1714.6,922.775c0-11.271-8.96-20.37-20.056-20.37
			c-11.06,0-20.055,9.1-20.055,20.37c0,11.234,8.995,20.369,20.055,20.369C1705.64,943.145,1714.6,934.01,1714.6,922.775z"/>
		<path fill-rule="evenodd" clip-rule="evenodd" fill="#220B78" d="M1868.425,831.565c2.555,0,4.584-2.101,4.584-4.655
			s-2.029-4.62-4.584-4.62c-2.521,0-4.551,2.065-4.551,4.62S1865.904,831.565,1868.425,831.565z"/>
		<path fill-rule="evenodd" clip-rule="evenodd" fill="#220B78" d="M1742.564,925.33c5.32,0,9.625-4.41,9.625-9.8
			c0-5.425-4.305-9.8-9.625-9.8c-5.355,0-9.66,4.375-9.66,9.8C1732.904,920.92,1737.209,925.33,1742.564,925.33z"/>
		<path fill-rule="evenodd" clip-rule="evenodd" fill="#220B78" d="M2086.319,1019.5c-10.192-26.82-49.165-16.86-49.772-38.922
			s15.884-50.521,9.643-61.578c-21.665-33.88-29.785-25.52-67.55-40.78c-22.54-9.1-47.74-27.055-73.535-27.055
			c-26.88,0-67.34,65.31-90.615,75.18c-35.453,15.003-58.047,9.921-74.763,24.116c-13.026,8.044-30.098,25.043-35.579,32.512
			c-21.978,33.68,5.179,62.61-5.438,101.935c-4.165,15.427-30.05,63.913-19.444,87.427c11.05,24.503,100.746-16.666,88.222,40.667
			c-6.614,30.276,19.519,59.671,24.813,66.666c19.37,25.592,62.969,5.044,80.709-18c14.001-18.188,35.268,18.693,52.994,4
			s9.38-33.941,16.817-41.333c7.738-7.689,46.949,10.616,60.196,2c13.059-8.479-10.942-58-6.275-82.667
			c3.794-20.052,51.635-21.442,57.412-30c14.432-21.38,10.446-10.814,24.296-27.799
			C2104.188,1054.303,2096.512,1046.32,2086.319,1019.5z"/>
	</g>
	<path fill-rule="evenodd" clip-rule="evenodd" fill="#220B78" d="M2070.758,978.019c5.32,0,9.625-4.41,9.625-9.8
		c0-5.425-4.305-9.8-9.625-9.8c-5.355,0-9.66,4.375-9.66,9.8C2061.098,973.608,2065.402,978.019,2070.758,978.019z"/>
	<path fill-rule="evenodd" clip-rule="evenodd" fill="#220B78" d="M2064.6,1161.035c0-11.271-8.96-20.37-20.056-20.37
		c-11.06,0-20.055,9.1-20.055,20.37c0,11.234,8.995,20.369,20.055,20.369C2055.64,1181.404,2064.6,1172.27,2064.6,1161.035z"/>
</g>
<g>
	<circle fill="#C4C5BA" cx="1817.1" cy="546.091" r="69.331"/>
	
		<ellipse transform="matrix(0.9464 0.3229 -0.3229 0.9464 266.6514 -567.5948)" fill="#999999" cx="1844.12" cy="519.919" rx="8.942" ry="8.049"/>
	
		<ellipse transform="matrix(0.9464 0.3229 -0.3229 0.9464 263.0126 -552.5112)" fill="#999999" cx="1796.771" cy="516.462" rx="4.408" ry="3.969"/>
	<path fill="#999999" d="M1783.313,565.554c-1.141,3.346-5.079,5.031-8.797,3.763c-3.714-1.267-5.801-5.008-4.66-8.354
		c1.142-3.344,5.08-5.028,8.793-3.762C1782.368,558.47,1784.455,562.21,1783.313,565.554z"/>
	
		<ellipse transform="matrix(0.9465 0.3228 -0.3228 0.9465 291.1333 -555.0872)" fill="#999999" cx="1819.021" cy="600.153" rx="4.571" ry="4.115"/>
	<path fill="#999999" d="M1866.169,593.311c-3.998-1.364-8.23,0.446-9.458,4.045c-0.62,1.817-0.351,3.742,0.581,5.381
		c3.652-2.604,7.06-5.563,10.168-8.857C1867.054,593.657,1866.622,593.465,1866.169,593.311z"/>
	
		<ellipse transform="matrix(0.9465 0.3228 -0.3228 0.9465 280.4276 -563.304)" fill="#999999" cx="1838.584" cy="563.841" rx="4.567" ry="4.111"/>
	<path fill="#999999" d="M1885.759,537.23c-3.094-0.004-5.889,1.725-6.852,4.55c-1.244,3.646,1.029,7.717,5.076,9.097
		c0.732,0.25,1.473,0.391,2.201,0.439C1886.532,546.571,1886.373,541.855,1885.759,537.23z"/>
	<path fill="#999999" d="M1816.329,476.982c0.731,2.184,2.555,4.076,5.068,4.934c3.836,1.309,7.886-0.273,9.356-3.547
		C1825.935,477.389,1821.106,476.935,1816.329,476.982z"/>
	<path opacity="0.4" fill="#655E58" d="M1861.456,506.49c17.988,33.804,5.168,75.79-28.636,93.777
		c-16.175,8.607-34.222,10.143-50.617,5.718c20.058,11.675,45.511,13.025,67.505,1.322c33.803-17.987,46.623-59.974,28.635-93.775
		c-9.381-17.628-25.289-29.532-43.156-34.354C1845.957,485.447,1855.175,494.685,1861.456,506.49z"/>
	<path fill="#999999" d="M1749.782,529.485c2.576-0.397,4.773-2.019,5.605-4.457c0.826-2.425,0.092-5.037-1.686-6.923
		c-0.84,1.891-1.615,3.828-2.297,5.824C1750.776,525.772,1750.25,527.626,1749.782,529.485z"/>
	<path opacity="0.3" fill="#FFFFFF" d="M1758.895,525.494c8.097-23.732,26.269-40.938,47.455-47.895
		c-24.593,3.882-46.271,20.904-54.868,46.107c-9.444,27.684-0.364,57.197,20.597,75.108
		C1755.757,579.95,1749.821,552.093,1758.895,525.494z"/>
</g>
<path fill-rule="evenodd" clip-rule="evenodd" fill="#220B78" d="M1963.425,1249.565c2.555,0,4.584-2.101,4.584-4.655
	s-2.029-4.62-4.584-4.62c-2.521,0-4.551,2.065-4.551,4.62S1960.904,1249.565,1963.425,1249.565z"/>
</svg>
